<mxfile host="app.diagrams.net" modified="2021-06-30T08:48:13.791Z" agent="5.0 (Macintosh; Intel Mac OS X 10_15_7) AppleWebKit/537.36 (KHTML, like Gecko) Chrome/91.0.4472.106 Safari/537.36" etag="YLecTFC8EsP2uZAPCY8O" version="14.8.2" type="github">
  <diagram id="cEZ1OBK6s3EPinM5I2QO" name="Page-1">
    <mxGraphModel dx="1186" dy="694" grid="1" gridSize="10" guides="1" tooltips="1" connect="1" arrows="1" fold="1" page="1" pageScale="1" pageWidth="827" pageHeight="1169" math="0" shadow="0">
      <root>
        <mxCell id="0" />
        <mxCell id="1" parent="0" />
        <mxCell id="xTsKIHWfF3n2va_PCBoa-3" value="" style="edgeStyle=orthogonalEdgeStyle;rounded=0;orthogonalLoop=1;jettySize=auto;html=1;" edge="1" parent="1" source="xTsKIHWfF3n2va_PCBoa-1" target="xTsKIHWfF3n2va_PCBoa-2">
          <mxGeometry relative="1" as="geometry" />
        </mxCell>
        <mxCell id="xTsKIHWfF3n2va_PCBoa-1" value="" style="rounded=0;whiteSpace=wrap;html=1;" vertex="1" parent="1">
          <mxGeometry x="80" y="120" width="120" height="60" as="geometry" />
        </mxCell>
        <mxCell id="xTsKIHWfF3n2va_PCBoa-2" value="" style="whiteSpace=wrap;html=1;rounded=0;" vertex="1" parent="1">
          <mxGeometry x="280" y="120" width="120" height="60" as="geometry" />
        </mxCell>
      </root>
    </mxGraphModel>
  </diagram>
</mxfile>
